<?xml version="1.0" standalone="no"?><!DOCTYPE svg PUBLIC "-//W3C//DTD SVG 1.1//EN" "http://www.w3.org/Graphics/SVG/1.1/DTD/svg11.dtd"><svg t="1575892098393" class="icon" viewBox="0 0 1024 1024" version="1.1" xmlns="http://www.w3.org/2000/svg" p-id="2742" xmlns:xlink="http://www.w3.org/1999/xlink" width="200" height="200"><defs><style type="text/css"></style></defs><path d="M835.842643 307.552631c14.518668 0 27.396977 5.941316 38.619576 17.822924 11.222599 11.881608 16.833387 25.090445 16.833387 39.616276l0 247.578702c0 13.199627-5.610788 25.453718-16.833387 36.641525-11.222599 11.222599-24.100908 16.833387-38.619576 16.833387l-718.964702 0c-13.208836 0-25.419949-5.610788-36.641525-16.833387-11.222599-11.18883-16.842597-23.441898-16.842597-36.641525l0-247.578702c0-14.526855 5.619998-27.734668 16.842597-39.616276 11.222599-11.881608 23.433712-17.822924 36.641525-17.822924L835.842643 307.552631zM116.877941 349.146958c-6.608511 0-10.56359 0.700965-11.889795 1.977028-1.318018 1.318018-1.977028 5.941316-1.977028 13.867846l0 247.578702c0 6.642281 0.659009 12.582573 1.977028 17.822924 1.327228 5.281283 5.281283 7.918343 11.889795 7.918343l718.964702 0c6.600325 0 10.234085-2.63706 10.893094-7.918343 0.659009-5.239328 0.988514-11.180644 0.988514-17.822924l0-247.578702c0-7.92653-0.329505-12.548804-0.988514-13.867846-0.659009-1.276063-4.29277-1.977028-10.893094-1.977028L116.877941 349.146958zM570.432831 384.791783l0 205.984375-425.828408 0L144.604422 384.791783 570.432831 384.791783zM903.177214 420.444794c22.453385 0 37.309744 5.941316 44.569078 17.831111 7.259334 11.881608 10.893094 28.428469 10.893094 49.51267 0 21.126156-3.63376 37.960567-10.893094 50.509371-7.259334 12.582573-22.115694 18.811438-44.569078 18.811438L903.177214 420.444794z" p-id="2743"></path></svg>