<?xml version="1.0" standalone="no"?><!DOCTYPE svg PUBLIC "-//W3C//DTD SVG 1.1//EN" "http://www.w3.org/Graphics/SVG/1.1/DTD/svg11.dtd"><svg t="1576034572532" class="icon" viewBox="0 0 1024 1024" version="1.1" xmlns="http://www.w3.org/2000/svg" p-id="2305" xmlns:xlink="http://www.w3.org/1999/xlink" width="200" height="200"><defs><style type="text/css"></style></defs><path d="M781 478.3H305.2c-56.7 0-105.2 43.3-109 99.9-4.3 62.4 45.5 114.8 107 114.8h29.1c2.5 0 4.5-2 4.5-4.5v-27.3c0-2.5-2-4.5-4.5-4.5h-23c-39.7 0-73.3-32.5-72.8-72.1 0.5-38.7 32.3-70.2 71.1-70.2h472.5v0.5c31.9-0.5 149.7 91 149.7 91V394.2c0.1 0-101.7 76.7-148.8 84.1z" fill="#2c2c2c" p-id="2306"></path><path d="M493.574 657.228v36.4h-134.1v-36.4z" fill="#2c2c2c" p-id="2307"></path><path d="M493.6 650.1H359.5c-3.9 0-7.1 3.2-7.1 7.1v36.4c0 3.9 3.2 7.1 7.1 7.1h134.1c3.9 0 7.1-3.2 7.1-7.1v-36.4c0-3.9-3.2-7.1-7.1-7.1z m-7.1 36.4H366.6v-22.2h119.9v22.2z" fill="#2c2c2c" p-id="2308"></path><path d="M95.4 570.8h36.2v19.8H95.4zM91.2 603.8H75.8c-2.3 0-4.2-1.9-4.2-4.2v-37.7c0-2.3 1.9-4.2 4.2-4.2h15.4c2.3 0 4.2 1.9 4.2 4.2v37.7c0 2.3-1.9 4.2-4.2 4.2z" fill="#2c2c2c" p-id="2309"></path><path d="M595.6 652.6c-13.8 0-25.1-11.2-25.1-25.1 0-13.8 11.2-25.1 25.1-25.1 13.8 0 25.1 11.2 25.1 25.1-0.1 13.9-11.3 25.1-25.1 25.1z m0-35.9c-6 0-10.9 4.9-10.9 10.9s4.9 10.9 10.9 10.9 10.9-4.9 10.9-10.9-4.9-10.9-10.9-10.9z" fill="#2c2c2c" p-id="2310"></path><path d="M778.3 525.6c21.7 0 99 54.3 143.6 89 1.9 1.5 4.3 2.3 6.7 3 0.9 0.3 2.3 0.3 3.3 0.3 9.5 0 14.6-12 19-37.8 3.5-20.4 5.4-47.4 5.4-76.1 0-28.7-1.9-55.7-5.4-76.1-4.4-25.9-10.4-36.9-19.8-36.9-1 0-2 0.1-2.9 0.4-2.3 0.4-10.6 5.4-12.5 6.9-1 0.8-94.2 69.3-139.2 76.8H301.1c-61 0-112 46.8-116.1 106.5-2.2 31.9 8.7 62.5 30.6 85.9 21.6 23.2 52.1 36.5 83.6 36.5h29.1c6.4 0 11.6-5.2 11.6-11.6V665c0-6.4-5.2-11.6-11.6-11.6h-23c-17.5 0-34.8-7.2-47.2-19.9-12.1-12.3-18.7-28.3-18.5-45 0.5-34.8 29.2-63.2 64-63.2h469.9m-469.9-14.1c-42.6 0-77.7 34.6-78.2 77.2-0.3 20.6 7.7 40.2 22.5 55.2 15.1 15.3 36 24.1 57.3 24.1h20.4v22h-26.5c-27.6 0-54.3-11.6-73.2-32-19.2-20.6-28.7-47.3-26.8-75.3 3.6-52.3 48.4-93.3 102-93.3H777c0.4 0 0.7 0 1.1-0.1 37.1-5.8 104.6-51.4 135.7-73.5-0.9 3.6-1.7 7.7-2.5 12.2-3.5 20.4-5.4 47.4-5.4 76.1 0 28.7 1.9 55.7 5.4 76.1 0.7 4.3 1.5 8.1 2.3 11.6-33.5-25.1-105.2-76.5-134.5-79.7" fill="#2c2c2c" p-id="2311"></path><path d="M920.5 505.4a11.4 93.8 0 1 0 22.8 0 11.4 93.8 0 1 0-22.8 0Z" fill="#2c2c2c" p-id="2312"></path><path d="M370.6 721.4h-32c-2.1 0-3.9-1.7-3.9-3.9V451.6c0-2.1 1.7-3.9 3.9-3.9h32c2.1 0 3.9 1.7 3.9 3.9v265.9c-0.1 2.1-1.8 3.9-3.9 3.9zM496 721.4h-32c-2.1 0-3.9-1.7-3.9-3.9V451.6c0-2.1 1.7-3.9 3.9-3.9h32c2.1 0 3.9 1.7 3.9 3.9v265.9c0 2.1-1.7 3.9-3.9 3.9zM433.3 721.4h-32c-2.1 0-3.9-1.7-3.9-3.9V451.6c0-2.1 1.7-3.9 3.9-3.9h32c2.1 0 3.9 1.7 3.9 3.9v265.9c0 2.1-1.8 3.9-3.9 3.9z" fill="#2c2c2c" p-id="2313"></path><path d="M464.5 411.2a15.6 5.6 0 1 0 31.2 0 15.6 5.6 0 1 0-31.2 0Z" fill="#2c2c2c" p-id="2314"></path><path d="M488.9 440.6h-1.8v-17.3c9.7-1.4 15.6-5.9 15.6-12.2 0-7.7-8.9-12.7-22.7-12.7-13.8 0-22.7 5-22.7 12.7 0 6.3 5.9 10.8 15.6 12.2v17.3h-1.8c-10 0-18.1 8.1-18.1 18.1v251.6c0 10 8.1 18.1 18.1 18.1h17.7c10 0 18.1-8.1 18.1-18.1V458.7c0.1-10-8-18.1-18-18.1z m3.9 269.8c0 2.2-1.8 3.9-3.9 3.9h-17.7c-2.2 0-3.9-1.8-3.9-3.9V458.7c0-2.2 1.8-3.9 3.9-3.9h17.7c2.2 0 3.9 1.8 3.9 3.9v251.7z" fill="#2c2c2c" p-id="2315"></path><path d="M796.1 562.1v0.3c-2-0.2-4-0.3-6-0.3h6z" fill="#2c2c2c" p-id="2316"></path><path d="M796.1 692.8v0.3h-6c2 0 4-0.1 6-0.3z" fill="#2c2c2c" p-id="2317"></path><path d="M480.1 422.2v19.2M363.4 440.6h-1.8v-17.3c9.7-1.4 15.6-5.9 15.6-12.2 0-7.7-8.9-12.7-22.7-12.7s-22.7 5-22.7 12.7c0 6.3 5.9 10.8 15.6 12.2v17.3h-1.8c-10 0-18.1 8.1-18.1 18.1v251.6c0 10 8.1 18.1 18.1 18.1h17.7c10 0 18.1-8.1 18.1-18.1V458.7c0.1-10-8-18.1-18-18.1z m4 269.8c0 2.2-1.8 3.9-3.9 3.9h-17.7c-2.2 0-3.9-1.8-3.9-3.9V458.7c0-2.2 1.8-3.9 3.9-3.9h17.7c2.2 0 3.9 1.8 3.9 3.9v251.7zM426.2 440.6h-1.8v-17.3c9.7-1.4 15.6-5.9 15.6-12.2 0-7.7-8.9-12.7-22.7-12.7s-22.7 5-22.7 12.7c0 6.3 5.9 10.8 15.6 12.2v17.3h-1.8c-10 0-18.1 8.1-18.1 18.1v251.6c0 10 8.1 18.1 18.1 18.1h17.7c10 0 18.1-8.1 18.1-18.1V458.7c0.1-10-8-18.1-18-18.1z m3.9 269.8c0 2.2-1.8 3.9-3.9 3.9h-17.7c-2.2 0-3.9-1.8-3.9-3.9V458.7c0-2.2 1.8-3.9 3.9-3.9h17.7c2.2 0 3.9 1.8 3.9 3.9v251.7z" fill="#2c2c2c" p-id="2318"></path><path d="M847.4 627.6c0 34-26.3 62.2-59.5 65.2-2 0.2-4 0.3-6 0.3H501.7v-36.2h277.8c15.6 0 28.4-12.8 28.4-28.4v-1.8c0-15.6-12.8-28.4-28.4-28.4H134.3v-36.2h647.6c2 0 4 0.1 6 0.3 33.2 3 59.5 31.2 59.5 65.2z" fill="#2c2c2c" p-id="2319"></path><path d="M788.5 555.3c-2.1-0.2-4.4-0.3-6.7-0.3H134.3c-3.9 0-7.1 3.2-7.1 7.1v1.7h-25.6c-2.5-7.6-9.6-13.1-18.1-13.1-10.5 0-19 8.5-19 19V592c0 10.5 8.5 19 19 19 8.4 0 15.6-5.5 18.1-13.1h25.6v0.5c0 3.9 3.2 7.1 7.1 7.1h153.1V635c0 14 9.6 25.4 21.3 25.4 11.8 0 21.3-11.4 21.3-25.4v-29.6h449.6c11.7 0 21.3 9.5 21.3 21.3v1.8c0 11.7-9.5 21.3-21.3 21.3H501.7c-3.9 0-7.1 3.2-7.1 7.1v36.2c0 3.9 3.2 7.1 7.1 7.1h280.1c2.4 0 4.6-0.1 6.6-0.3 37-3.4 66-35.1 66-72.3 0-37.2-28.9-68.9-65.9-72.3zM88.3 591.9c0 2.6-2.2 4.8-4.8 4.8-2.6 0-4.8-2.2-4.8-4.8v-22.3c0-2.6 2.2-4.8 4.8-4.8 2.6 0 4.8 2.2 4.8 4.8v22.3z m36.2-8.3h-22V578h22v5.6zM315.8 635c0 6.4-3.8 11.3-7.1 11.3-3.4 0-7.1-4.8-7.1-11.3v-29.6h14.3V635z m471.3 50.7c-1.6 0.2-3.4 0.2-5.3 0.2h-273v-22h270.7c19.6 0 35.5-15.9 35.5-35.5v-1.8c0-19.6-15.9-35.5-35.5-35.5H141.3v-22h640.5c1.9 0 3.6 0.1 5.3 0.3 29.8 2.7 53.1 28.3 53.1 58.2 0.1 29.9-23.3 55.4-53.1 58.1z" fill="#2c2c2c" p-id="2320"></path></svg>